<svg viewBox="0 0 762 645"  xmlns="http://www.w3.org/2000/svg">
<path d="M218 234.5C218 104.989 322.989 0 452.5 0C582.011 0 687 104.989 687 234.5V623H218V234.5Z" fill="white"/>
<path d="M361 603C361 570.415 387.415 544 420 544C452.585 544 479 570.415 479 603V623H361V603Z" fill="#EDF2FC"/>
<g clip-path="url(#clip0_193_67)">
<path d="M452.398 608.395L436.862 592.334H436.874V582.667C436.874 577.329 432.688 573.001 427.524 573.001C422.999 573.001 419.225 576.324 418.36 580.738C416.335 580.307 414.238 580.08 412.09 580.08C396.197 580.08 383.109 592.493 381.402 608.453H348.75C346.855 608.453 345.318 610.042 345.318 612.001H450.953C452.773 612.001 453.685 609.726 452.398 608.396V608.395ZM433.507 601.943C431.647 601.943 430.14 600.385 430.14 598.462C430.14 596.54 431.647 594.981 433.507 594.981C435.366 594.981 436.874 596.54 436.874 598.462C436.874 600.385 435.366 601.943 433.507 601.943Z" fill="#221F20"/>
</g>
<path d="M524 486H712C739.614 486 762 508.386 762 536V645H524V486Z" fill="#89CDE9"/>
<path d="M287 425C287 370.876 330.876 327 385 327H552V486H287V425Z" fill="#2F69DE"/>
<g clip-path="url(#clip1_193_67)">
<path d="M22.4111 645H-5.34058e-05V639.657H10.3306L53.1533 596.649V614.125C53.1533 631.177 39.3894 645 22.4111 645Z" fill="#221F20"/>
<path d="M16.251 495.374C12.2898 495.374 9.07831 498.691 9.07831 502.782V505.695C9.07831 508.552 11.3208 510.869 14.0878 510.869H164.998V510.996C164.998 510.996 164.999 510.996 165 510.996V632.101C165 639.225 159.25 645 152.157 645H131.672V639.656H142.188L131.451 596.649H53.1534H18.4618C8.26573 596.649 0 588.348 0 578.108V543.172C13.9356 546.612 18.5788 557.758 18.7434 558.163H34.4053C34.4053 558.163 38.9597 546.663 53.1534 543.159V596.648L119.658 529.858C123.365 526.135 127.48 522.917 131.897 520.244H14.0873C6.30721 520.244 0 513.73 0 505.695V502.782C0 493.513 7.27557 485.999 16.2504 485.999H43.2055C48.2191 485.999 53.1534 490.196 53.1534 495.374M25.6186 580.737V585.197H27.5348V580.737C28.823 580.329 29.7573 579.12 29.7573 577.691H23.3954C23.3954 579.12 24.3297 580.329 25.618 580.737L25.6186 580.737ZM33.4998 573.189H35.3666C35.3666 571.724 36.5525 570.533 38.0107 570.533C39.4689 570.533 40.6548 571.724 40.6548 573.189H42.5216C42.5216 570.691 40.4978 568.659 38.0107 568.659C35.5236 568.659 33.4998 570.691 33.4998 573.189ZM10.6311 573.189H12.498C12.498 571.724 13.6839 570.533 15.1421 570.533C16.6003 570.533 17.7862 571.724 17.7862 573.189H19.653C19.653 570.691 17.6292 568.659 15.1421 568.659C12.655 568.659 10.6311 570.691 10.6311 573.189Z" fill="#221F20"/>
</g>
<g clip-path="url(#clip2_193_67)">
<path d="M694.589 486H717V480.656H706.669L663.847 437.649V455.125C663.847 472.177 677.611 486 694.589 486Z" fill="#221F20"/>
<path d="M700.749 336.374C704.71 336.374 707.922 339.691 707.922 343.782V346.695C707.922 349.552 705.679 351.869 702.912 351.869H552.002V351.996C552.002 351.996 552.001 351.996 552 351.996V473.101C552 480.225 557.75 486 564.843 486H585.328V480.656H574.812L585.549 437.649H663.847H698.538C708.734 437.649 717 429.348 717 419.108V384.172C703.064 387.612 698.421 398.758 698.257 399.163H682.595C682.595 399.163 678.04 387.663 663.847 384.159V437.648L597.342 370.858C593.635 367.135 589.52 363.917 585.103 361.244H702.913C710.693 361.244 717 354.73 717 346.695V343.782C717 334.513 709.724 326.999 700.75 326.999H673.795C668.781 326.999 663.847 331.196 663.847 336.374M691.381 421.737V426.197H689.465V421.737C688.177 421.329 687.243 420.12 687.243 418.691H693.605C693.605 420.12 692.67 421.329 691.382 421.737L691.381 421.737ZM683.5 414.189H681.633C681.633 412.724 680.447 411.533 678.989 411.533C677.531 411.533 676.345 412.724 676.345 414.189H674.478C674.478 411.691 676.502 409.659 678.989 409.659C681.476 409.659 683.5 411.691 683.5 414.189ZM706.369 414.189H704.502C704.502 412.724 703.316 411.533 701.858 411.533C700.4 411.533 699.214 412.724 699.214 414.189H697.347C697.347 411.691 699.371 409.659 701.858 409.659C704.345 409.659 706.369 411.691 706.369 414.189Z" fill="#221F20"/>
</g>
<path d="M229 486C261.033 486 287 460.033 287 428H171C171 460.033 196.967 486 229 486Z" fill="#0F8385"/>
<path d="M229 429C261.033 429 287 403.033 287 371H171C171 403.033 196.967 429 229 429Z" fill="#0F8385"/>
<path d="M229 371C261.033 371 287 345.48 287 314H171C171 345.48 196.967 371 229 371Z" fill="#0F8385"/>
<rect x="393" y="168" width="159" height="159" rx="79.5" fill="#7D66CA"/>
<rect x="429" y="204" width="87" height="87" rx="43.5" fill="#EDF2FC"/>
<path fill-rule="evenodd" clip-rule="evenodd" d="M310 486H165V645H310V486ZM237.5 522C213.476 522 194 541.476 194 565.5C194 589.524 213.476 609 237.5 609C261.524 609 281 589.524 281 565.5C281 541.476 261.524 522 237.5 522Z" fill="#E7B53E"/>
<defs>
<clipPath id="clip0_193_67">
<rect width="92" height="39" fill="white" transform="translate(361 573)"/>
</clipPath>
<clipPath id="clip1_193_67">
<rect width="165" height="159" fill="white" transform="matrix(-1 0 0 1 165 486)"/>
</clipPath>
<clipPath id="clip2_193_67">
<rect width="165" height="159" fill="white" transform="translate(552 327)"/>
</clipPath>
</defs>
</svg>
