<?xml version="1.0" encoding="UTF-8"?>
<svg id="Layer_1" data-name="Layer 1" xmlns="http://www.w3.org/2000/svg" viewBox="0 0 2431.38 1095.28">
  <defs>
    <style>
      .cls-1 {
        fill: #221f20;
        stroke-width: 0px;
      }
    </style>
  </defs>
  <path  d="m2070.34,612.32h.01s147.93-.01,147.93-.01c117.22,0,212.24-95.03,212.24-212.24V.99c-155,38.11-210,158.77-215.13,170.78h-180.41S1982.62,40.12,1819.44,0v475.5c-150.03-60.08-318.26-93.79-495.98-93.79-15.7,0-31.31.29-46.85.81h-317.22c-120.35,0-234.35-45.81-321.21-129.03-85.75-82.16-198.99-129.46-317.74-129.46H0c0,64.21,52.05,116.25,116.25,116.25h203.07c88.04,0,171.45,33.37,235.16,94.01,74.05,70.48,163.88,120.83,261.03,146.06-294.32,121.41-516.74,345.01-599.97,614.93h66.47c227.34-214.37,608.97-355.02,1041.45-355.02s814.11,140.65,1041.45,355.02h66.47c-58.79-190.67-187.06-358.21-361.04-482.96Zm212.88-249.04c-5.97-7.94-15.44-13.09-26.14-13.09s-20.17,5.16-26.14,13.09c-4.12-5.47-6.59-12.26-6.59-19.63,0-18.07,14.65-32.72,32.72-32.72h.02c18.07,0,32.72,14.65,32.72,32.72,0,7.38-2.47,14.16-6.59,19.63Zm-121.67,34.07c0,16.36-10.74,30.2-25.55,34.87v55.61h-22.03v-55.61c-14.81-4.67-25.55-18.52-25.55-34.87h73.13Zm-142.55-34.08c-5.97-7.93-15.44-13.08-26.13-13.08s-20.17,5.16-26.14,13.09c-4.12-5.47-6.59-12.26-6.59-19.63,0-18.07,14.65-32.72,32.72-32.72s32.72,14.65,32.72,32.72c0,7.37-2.47,14.15-6.58,19.62Z"/>
</svg>